# xmcd
#
# Track frame offsets:
# 150
# 19923
# 47039
# 69227
# 90608
# 119555
# 165466
#
# Disc length: 2431 seconds
#
#
# Revision: 1
# Processed by: cddbd v1.5.1PL2 Copyright (c) Steve Scherf et al.
# Submitted via: FreeRIP 2.92 
#
DISCID=54097d07
DTITLE=Mehmet Emin AY - Muhammed aþýklarý
DYEAR=1900
DGENRE=
TTITLE0=1
TTITLE1=2
TTITLE2=3
TTITLE3=4
TTITLE4=5
TTITLE5=6
TTITLE6=7
EXTD=ozoyem
EXTT0=
EXTT1=
EXTT2=
EXTT3=
EXTT4=
EXTT5=
EXTT6=
PLAYORDER=
